<svg width="16" height="16" viewBox="0 0 16 16" fill="none" xmlns="http://www.w3.org/2000/svg">
<g id="globe" clip-path="url(#clip0_446_31068)">
<path id="Vector" d="M8.00065 14.6666C11.6825 14.6666 14.6673 11.6818 14.6673 7.99992C14.6673 4.31802 11.6825 1.33325 8.00065 1.33325C4.31875 1.33325 1.33398 4.31802 1.33398 7.99992C1.33398 11.6818 4.31875 14.6666 8.00065 14.6666Z" stroke="#EF6630" stroke-width="2" stroke-linecap="round" stroke-linejoin="round"/>
<path id="Vector_2" d="M1.33398 8H14.6673" stroke="#EF6630" stroke-width="2" stroke-linecap="round" stroke-linejoin="round"/>
<path id="Vector_3" d="M8.00065 1.33325C9.66817 3.15882 10.6158 5.52794 10.6673 7.99992C10.6158 10.4719 9.66817 12.841 8.00065 14.6666C6.33313 12.841 5.38548 10.4719 5.33398 7.99992C5.38548 5.52794 6.33313 3.15882 8.00065 1.33325V1.33325Z" stroke="#EF6630" stroke-width="2" stroke-linecap="round" stroke-linejoin="round"/>
</g>
<defs>
<clipPath id="clip0_446_31068">
<rect width="16" height="16" fill="white"/>
</clipPath>
</defs>
</svg>
